<svg xmlns="http://www.w3.org/2000/svg" aria-hidden="true" style="position:absolute;width:0;height:0;overflow:hidden">
  <defs>
    <symbol id="icon-vector-8" viewBox="0 0 345 32">
      <path d="M1.611 24.026a2.286 2.286 0 0 0 2.176 4.02l-2.176-4.02zm177.659-9.145.794-2.143-.076-.028-.078-.023-.64 2.194zM343.886 1.417l-26.114 3.827 16.37 20.702 9.744-24.529zM2.699 26.036c1.088 2.01 1.087 2.011 1.087 2.011h.001l.007-.004a.703.703 0 0 1 .034-.018l.15-.079c.136-.071.344-.179.621-.319a92.233 92.233 0 0 1 2.498-1.211c2.211-1.035 5.498-2.489 9.764-4.146 8.533-3.315 20.979-7.44 36.573-10.651 31.186-6.423 74.942-9.191 125.197 5.458l1.279-4.389C128.8-2.21 84.27.6 52.512 7.142c-15.878 3.27-28.57 7.474-37.306 10.868-4.368 1.697-7.749 3.192-10.047 4.267-1.149.538-2.027.971-2.622 1.271a48.622 48.622 0 0 0-.858.443l-.048.026-.014.007-.004.003c-.001.001-.003.001 1.085 2.011zm175.778-9.012c28.477 10.546 58.177 14.438 84.657 13.661 26.446-.776 49.849-6.213 65.678-14.485l-2.117-4.052c-15.035 7.857-37.703 13.205-63.694 13.967-25.961.761-55.069-3.058-82.937-13.379l-1.587 4.287z"/>
    </symbol>
    <symbol id="icon-polygon-1" viewBox="0 0 28 32">
      <path d="M27.556 14.46c1.185.684 1.185 2.395 0 3.079l-24 13.856c-1.185.684-2.667-.171-2.667-1.54V2.142C.889.773 2.371-.082 3.556.602l24 13.856z"/>
    </symbol>
    <symbol id="icon-vector-1" viewBox="0 0 98 32">
      <path d="M1.051 15.066a.842.842 0 1 1 1.283-1.091l-1.283 1.091zm49.063 2.161.773.334-.022.05-.028.046-.724-.431zM96.007 22.6l-8.41-4.882 8.432-4.842-.023 9.724zM1.692 14.52l.641-.546.001.001.003.004.014.017a41.182 41.182 0 0 0 .303.343c.215.24.535.59.95 1.025.83.871 2.038 2.082 3.547 3.438 3.025 2.717 7.23 5.988 11.997 8.272 4.77 2.285 10.027 3.547 15.204 2.364 5.151-1.178 10.379-4.814 15.038-12.641l1.447.861c-4.832 8.118-10.403 12.117-16.11 13.422-5.682 1.299-11.344-.109-16.307-2.487-4.966-2.379-9.306-5.764-12.395-8.538a65.787 65.787 0 0 1-3.641-3.529 47.885 47.885 0 0 1-.984-1.062l-.258-.291-.067-.077a.574.574 0 0 1-.018-.021l-.005-.006-.001-.002c0-.001-.001-.001.641-.547zm47.649 2.372C54.65 4.625 62.492-.384 70.712.177 78.82.73 86.942 6.693 92.93 15.556l-1.396.943C85.698 7.862 77.982 2.361 70.597 1.858c-7.273-.496-14.579 3.845-19.711 15.704l-1.546-.669z"/>
    </symbol>
  </defs>
</svg>
