<svg xmlns="http://www.w3.org/2000/svg" width="151" height="14" fill="none">
  <path fill="url(#a)" d="m78.43 6.51.348-.937-.033-.013-.034-.01-.28.96ZM150.45.62l-11.425 1.674 7.162 9.058L150.45.62ZM1.18 11.39l.476.88.004-.001.015-.008a40.55 40.55 0 0 1 1.43-.704 69.614 69.614 0 0 1 4.272-1.814c3.733-1.45 9.178-3.255 16-4.66 13.644-2.81 32.788-4.021 54.774 2.387l.56-1.92C56.35-.967 36.868.262 22.974 3.124c-6.947 1.43-12.5 3.27-16.321 4.754a71.584 71.584 0 0 0-4.396 1.867 42.75 42.75 0 0 0-1.522.75l-.021.012c-.003 0-.005.002-.006.003H.706c0 .001-.001.001.475.88Zm76.904-3.942c12.458 4.614 25.452 6.316 37.037 5.977 11.57-.34 21.809-2.719 28.734-6.337l-.926-1.773c-6.578 3.437-16.495 5.777-27.866 6.11-11.358.334-24.093-1.337-36.285-5.852l-.694 1.875Z"/>
  <defs>
    <linearGradient id="a" x1="153.697" x2="73.704" y1="2.768" y2="78.546" gradientUnits="userSpaceOnUse">
      <stop stop-color="#F10C6D"/>
      <stop offset="1" stop-color="#F10C6D" stop-opacity="0"/>
    </linearGradient>
  </defs>
</svg>
