<svg xmlns="http://www.w3.org/2000/svg" width="58" height="19" fill="none">
  <path fill="url(#a)" d="M.624 8.945a.5.5 0 0 1 .762-.648l-.762.648Zm29.13 1.284.46.198-.013.03-.016.027-.43-.255Zm27.25 3.19-4.993-2.899 5.007-2.875-.014 5.774Zm-56-4.798.382-.324.002.003a3.94 3.94 0 0 0 .044.051l.144.163c.128.142.318.35.564.608a38.1 38.1 0 0 0 2.106 2.041c1.796 1.613 4.293 3.556 7.123 4.912 2.833 1.357 5.954 2.106 9.028 1.404 3.058-.7 6.162-2.858 8.928-7.506l.86.511c-2.87 4.82-6.177 7.195-9.566 7.97-3.373.77-6.735-.065-9.682-1.477-2.948-1.413-5.525-3.422-7.359-5.07a39.092 39.092 0 0 1-2.162-2.095 28.696 28.696 0 0 1-.777-.85l-.01-.012-.004-.003v-.001l.38-.325Zm28.292 1.409C32.449 2.746 37.105-.228 41.986.105c4.813.328 9.636 3.869 13.191 9.131l-.828.56c-3.465-5.128-8.047-8.394-12.432-8.693-4.318-.295-8.656 2.283-11.703 9.324l-.918-.397Z"/>
  <defs>
    <linearGradient id="a" x1="57.43" x2="4.132" y1="10.516" y2="10.522" gradientUnits="userSpaceOnUse">
      <stop stop-color="#2E1720"/>
      <stop offset="1" stop-color="#29301E" stop-opacity="0"/>
    </linearGradient>
  </defs>
</svg>
